<?xml version="1.0" encoding="UTF-8"?>
<svg xmlns="http://www.w3.org/2000/svg" width="848" height="845" xmlns:xlink="http://www.w3.org/1999/xlink" viewBox="0 0 848 845">
  <defs>
    <style>
      .cls-1 {
        stroke: #54565a;
        stroke-miterlimit: 10;
        stroke-width: 3px;
      }

      .cls-1, .cls-2 {
        fill: none;
      }

      .cls-3 {
        fill: #ccd4ec;
      }

      .cls-4 {
        fill: #54565a;
      }

      .cls-5 {
        clip-path: url(#clippath-1);
      }

      .cls-6 {
        fill: #949fd0;
      }

      .cls-7 {
        clip-path: url(#clippath-3);
      }

      .cls-8 {
        clip-path: url(#clippath-2);
      }

      .cls-9 {
        clip-path: url(#clippath);
      }
    </style>
    <clipPath id="clippath">
      <rect class="cls-2" x="763.25" y="801.18" width="75" height="31.07"/>
    </clipPath>
    <clipPath id="clippath-1">
      <rect class="cls-2" x="763.25" y="801.18" width="75" height="31.07"/>
    </clipPath>
    <clipPath id="clippath-2">
      <path class="cls-2" d="M771.22,801.18l4.15,4.59,39.2,7.81v.45l-37.54-6.46,3.27,3.6,34.27,3.38v.44c-10.98-.76-21.86-1.49-32.84-2.25l2.51,2.76c10.14,0,20.19,0,30.33,0v.38h4.03v-1.34c0-1.04-.84-1.89-1.85-1.89h-2.18v.42l-43.34-11.88Z"/>
    </clipPath>
    <clipPath id="clippath-3">
      <rect class="cls-2" x="763.25" y="801.18" width="75" height="31.07"/>
    </clipPath>
  </defs>
  <g id="Layer_3" data-name="Layer 3">
    <line class="cls-1" x1="101.22" y1="17" x2="101.22" y2="835.44"/>
    <line class="cls-1" x1="467.42" y1="17" x2="467.42" y2="835.44"/>
    <line class="cls-1" x1="18.5" y1="110.97" x2="838" y2="110.97"/>
    <line class="cls-1" x1="18.5" y1="475.41" x2="838" y2="475.41"/>
    <g>
      <path d="M195.5,78.13h-2.34v-9.45h-10.58v9.45h-2.34v-20.08h2.34v8.54h10.58v-8.54h2.34v20.08Z"/>
      <path d="M200.48,59c0-.52.13-.9.38-1.15.26-.24.58-.36.96-.36s.68.12.95.37c.27.25.4.63.4,1.14s-.13.9-.4,1.15c-.26.25-.58.38-.95.38-.38,0-.71-.13-.96-.38-.26-.25-.38-.63-.38-1.15ZM202.95,78.13h-2.28v-15.06h2.28v15.06Z"/>
      <path d="M220.11,63.08v1.44l-2.79.33c.26.32.49.74.69,1.26.2.52.3,1.1.3,1.75,0,1.47-.5,2.65-1.51,3.53s-2.39,1.32-4.15,1.32c-.45,0-.87-.04-1.26-.11-.97.51-1.46,1.16-1.46,1.94,0,.41.17.72.51.91.34.2.92.3,1.75.3h2.67c1.63,0,2.88.34,3.76,1.03.87.69,1.31,1.68,1.31,2.99,0,1.67-.67,2.94-2.01,3.81-1.34.87-3.29,1.31-5.85,1.31-1.97,0-3.49-.37-4.55-1.1-1.07-.73-1.6-1.77-1.6-3.1,0-.92.29-1.71.88-2.38.59-.67,1.41-1.12,2.47-1.36-.38-.17-.71-.44-.97-.81-.26-.37-.39-.79-.39-1.28,0-.55.15-1.03.44-1.44s.76-.81,1.39-1.2c-.78-.32-1.41-.87-1.9-1.63s-.74-1.65-.74-2.64c0-1.65.49-2.92,1.48-3.81.99-.89,2.39-1.34,4.2-1.34.79,0,1.5.09,2.13.27h5.21ZM208.1,80.66c0,.81.34,1.43,1.03,1.85.69.42,1.67.63,2.95.63,1.91,0,3.33-.29,4.25-.86.92-.57,1.38-1.35,1.38-2.33,0-.82-.25-1.38-.76-1.7-.5-.32-1.45-.47-2.84-.47h-2.73c-1.04,0-1.84.25-2.42.74s-.86,1.2-.86,2.13ZM209.34,67.9c0,1.05.3,1.85.89,2.39.6.54,1.42.81,2.49.81,2.22,0,3.34-1.08,3.34-3.24s-1.13-3.39-3.38-3.39c-1.07,0-1.9.29-2.47.87s-.87,1.43-.87,2.57Z"/>
      <path d="M233.5,78.13v-9.74c0-1.23-.28-2.14-.84-2.75-.56-.6-1.43-.91-2.62-.91-1.58,0-2.74.43-3.47,1.29-.73.86-1.09,2.27-1.09,4.23v7.87h-2.28v-21.38h2.28v6.47c0,.78-.04,1.42-.11,1.94h.14c.45-.72,1.09-1.29,1.92-1.71.83-.42,1.77-.63,2.84-.63,1.84,0,3.22.44,4.14,1.31.92.87,1.38,2.26,1.38,4.17v9.82h-2.28Z"/>
      <path d="M260.85,63.9c0,2.03-.69,3.6-2.08,4.69-1.39,1.09-3.37,1.64-5.95,1.64h-2.36v7.9h-2.34v-20.08h5.21c5.02,0,7.53,1.95,7.53,5.85ZM250.45,68.23h2.1c2.07,0,3.57-.33,4.49-1,.92-.67,1.39-1.74,1.39-3.21,0-1.33-.44-2.32-1.31-2.97-.87-.65-2.22-.98-4.07-.98h-2.61v8.16Z"/>
      <path d="M271.58,62.8c.67,0,1.27.05,1.8.16l-.32,2.12c-.62-.14-1.17-.21-1.65-.21-1.22,0-2.26.49-3.13,1.48-.86.99-1.3,2.22-1.3,3.7v8.08h-2.28v-15.06h1.88l.26,2.79h.11c.56-.98,1.23-1.74,2.02-2.27.79-.53,1.65-.8,2.6-.8Z"/>
      <path d="M282.56,78.41c-2.23,0-3.98-.68-5.27-2.03-1.29-1.36-1.93-3.24-1.93-5.65s.6-4.35,1.79-5.78c1.19-1.43,2.8-2.14,4.81-2.14,1.89,0,3.38.62,4.48,1.86,1.1,1.24,1.65,2.88,1.65,4.91v1.44h-10.37c.05,1.77.49,3.11,1.34,4.03.85.92,2.04,1.37,3.58,1.37,1.62,0,3.22-.34,4.81-1.02v2.03c-.81.35-1.57.6-2.29.75-.72.15-1.59.23-2.6.23ZM281.94,64.71c-1.21,0-2.17.39-2.89,1.18-.72.79-1.14,1.88-1.27,3.27h7.87c0-1.44-.32-2.54-.96-3.3-.64-.76-1.56-1.15-2.75-1.15Z"/>
      <path d="M298,78.41c-2.18,0-3.87-.67-5.06-2.01-1.2-1.34-1.79-3.24-1.79-5.69s.61-4.46,1.82-5.84c1.21-1.37,2.94-2.06,5.19-2.06.72,0,1.45.08,2.17.23.72.16,1.29.34,1.7.55l-.7,1.94c-.5-.2-1.05-.37-1.65-.5-.6-.13-1.12-.2-1.58-.2-3.06,0-4.59,1.95-4.59,5.85,0,1.85.37,3.27,1.12,4.26s1.85,1.48,3.32,1.48c1.26,0,2.54-.27,3.86-.81v2.02c-1.01.52-2.28.78-3.81.78Z"/>
      <path d="M305.18,59c0-.52.13-.9.38-1.15.26-.24.58-.36.96-.36s.68.12.95.37c.27.25.4.63.4,1.14s-.13.9-.4,1.15c-.26.25-.58.38-.95.38-.38,0-.71-.13-.96-.38-.26-.25-.38-.63-.38-1.15ZM307.66,78.13h-2.28v-15.06h2.28v15.06Z"/>
      <path d="M322.21,74.03c0,1.4-.52,2.48-1.57,3.24-1.04.76-2.51,1.14-4.4,1.14-2,0-3.55-.32-4.67-.95v-2.12c.72.37,1.5.66,2.33.87.83.21,1.63.32,2.4.32,1.19,0,2.11-.19,2.75-.57.64-.38.96-.96.96-1.74,0-.59-.25-1.09-.76-1.5-.51-.42-1.5-.91-2.97-1.48-1.4-.52-2.4-.98-2.99-1.37-.59-.39-1.03-.83-1.32-1.33-.29-.49-.43-1.09-.43-1.77,0-1.23.5-2.2,1.5-2.91,1-.71,2.37-1.06,4.11-1.06,1.62,0,3.21.33,4.75.99l-.81,1.85c-1.51-.62-2.88-.93-4.11-.93-1.08,0-1.9.17-2.45.51-.55.34-.82.81-.82,1.4,0,.4.1.75.31,1.03.21.28.54.55,1,.81.46.26,1.34.63,2.64,1.11,1.78.65,2.99,1.31,3.62,1.96s.94,1.49.94,2.49Z"/>
      <path d="M325.72,59c0-.52.13-.9.38-1.15.26-.24.58-.36.96-.36s.68.12.95.37c.27.25.4.63.4,1.14s-.13.9-.4,1.15c-.26.25-.58.38-.95.38-.38,0-.71-.13-.96-.38-.26-.25-.38-.63-.38-1.15ZM328.2,78.13h-2.28v-15.06h2.28v15.06Z"/>
      <path d="M346.03,70.59c0,2.45-.62,4.37-1.85,5.75-1.24,1.38-2.95,2.07-5.12,2.07-1.35,0-2.54-.32-3.59-.95s-1.85-1.54-2.42-2.72c-.57-1.18-.85-2.56-.85-4.15,0-2.45.61-4.37,1.84-5.74,1.23-1.37,2.93-2.05,5.11-2.05s3.78.7,5.02,2.1,1.86,3.3,1.86,5.69ZM334.56,70.59c0,1.92.38,3.39,1.15,4.4.77,1.01,1.9,1.51,3.39,1.51s2.63-.5,3.4-1.5c.77-1,1.16-2.47,1.16-4.4s-.39-3.37-1.16-4.36c-.77-.99-1.92-1.49-3.43-1.49s-2.62.49-3.38,1.47c-.76.98-1.14,2.44-1.14,4.38Z"/>
      <path d="M360.33,78.13v-9.74c0-1.23-.28-2.14-.84-2.75-.56-.6-1.43-.91-2.62-.91-1.57,0-2.73.43-3.46,1.28s-1.1,2.26-1.1,4.22v7.9h-2.28v-15.06h1.86l.37,2.06h.11c.47-.74,1.12-1.32,1.96-1.72.84-.41,1.78-.61,2.82-.61,1.81,0,3.18.44,4.09,1.31.92.87,1.37,2.27,1.37,4.2v9.82h-2.28Z"/>
    </g>
    <g>
      <path d="M566.95,77.75v-20.08h2.34v17.97h8.86v2.12h-11.2Z"/>
      <path d="M594.21,70.21c0,2.45-.62,4.37-1.85,5.75-1.24,1.38-2.95,2.07-5.12,2.07-1.35,0-2.54-.32-3.59-.95s-1.85-1.54-2.42-2.72c-.57-1.18-.85-2.56-.85-4.15,0-2.45.61-4.37,1.84-5.74,1.23-1.37,2.93-2.05,5.11-2.05s3.78.7,5.02,2.1,1.86,3.3,1.86,5.69ZM582.74,70.21c0,1.92.38,3.39,1.15,4.4.77,1.01,1.9,1.51,3.39,1.51s2.63-.5,3.4-1.5c.77-1,1.16-2.47,1.16-4.4s-.39-3.37-1.16-4.36c-.77-.99-1.92-1.49-3.43-1.49s-2.62.49-3.38,1.47c-.76.98-1.14,2.44-1.14,4.38Z"/>
      <path d="M610.5,77.75l-2.76-8.83c-.17-.54-.5-1.77-.97-3.68h-.11c-.37,1.6-.69,2.84-.96,3.71l-2.84,8.81h-2.64l-4.11-15.06h2.39c.97,3.78,1.71,6.66,2.22,8.64.51,1.98.8,3.31.87,4h.11c.1-.52.26-1.2.49-2.03.22-.83.42-1.49.58-1.97l2.76-8.64h2.47l2.69,8.64c.51,1.58.86,2.9,1.04,3.97h.11c.04-.33.14-.84.3-1.52s1.12-4.38,2.87-11.09h2.36l-4.16,15.06h-2.71Z"/>
      <path d="M640.48,63.52c0,2.03-.69,3.6-2.08,4.69-1.39,1.09-3.37,1.64-5.95,1.64h-2.36v7.9h-2.34v-20.08h5.21c5.02,0,7.53,1.95,7.53,5.85ZM630.08,67.85h2.1c2.07,0,3.57-.33,4.49-1,.92-.67,1.39-1.74,1.39-3.21,0-1.33-.44-2.32-1.31-2.97-.87-.65-2.22-.98-4.07-.98h-2.61v8.16Z"/>
      <path d="M651.2,62.42c.67,0,1.27.05,1.8.16l-.32,2.12c-.62-.14-1.17-.21-1.65-.21-1.22,0-2.26.49-3.13,1.48-.86.99-1.3,2.22-1.3,3.7v8.08h-2.28v-15.06h1.88l.26,2.79h.11c.56-.98,1.23-1.74,2.02-2.27.79-.53,1.65-.8,2.6-.8Z"/>
      <path d="M662.18,78.03c-2.23,0-3.98-.68-5.27-2.03-1.29-1.36-1.93-3.24-1.93-5.65s.6-4.35,1.79-5.78c1.19-1.43,2.8-2.14,4.81-2.14,1.89,0,3.38.62,4.48,1.86,1.1,1.24,1.65,2.88,1.65,4.91v1.44h-10.37c.05,1.77.49,3.11,1.34,4.03.85.92,2.04,1.37,3.58,1.37,1.62,0,3.22-.34,4.81-1.02v2.03c-.81.35-1.57.6-2.29.75-.72.15-1.59.23-2.6.23ZM661.56,64.33c-1.21,0-2.17.39-2.89,1.18-.72.79-1.14,1.88-1.27,3.27h7.87c0-1.44-.32-2.54-.96-3.3-.64-.76-1.56-1.15-2.75-1.15Z"/>
      <path d="M677.62,78.03c-2.18,0-3.87-.67-5.06-2.01-1.2-1.34-1.79-3.24-1.79-5.69s.61-4.46,1.82-5.84c1.21-1.37,2.94-2.06,5.19-2.06.72,0,1.45.08,2.17.23.72.16,1.29.34,1.7.55l-.7,1.94c-.5-.2-1.05-.37-1.65-.5-.6-.13-1.12-.2-1.58-.2-3.06,0-4.59,1.95-4.59,5.85,0,1.85.37,3.27,1.12,4.26s1.85,1.48,3.32,1.48c1.26,0,2.54-.27,3.86-.81v2.02c-1.01.52-2.28.78-3.81.78Z"/>
      <path d="M684.81,58.62c0-.52.13-.9.38-1.15.26-.24.58-.36.96-.36s.68.12.95.37c.27.25.4.63.4,1.14s-.13.9-.4,1.15c-.26.25-.58.38-.95.38-.38,0-.71-.13-.96-.38-.26-.25-.38-.63-.38-1.15ZM687.28,77.75h-2.28v-15.06h2.28v15.06Z"/>
      <path d="M701.83,73.65c0,1.4-.52,2.48-1.57,3.24-1.04.76-2.51,1.14-4.4,1.14-2,0-3.55-.32-4.67-.95v-2.12c.72.37,1.5.66,2.33.87.83.21,1.63.32,2.4.32,1.19,0,2.11-.19,2.75-.57.64-.38.96-.96.96-1.74,0-.59-.25-1.09-.76-1.5-.51-.42-1.5-.91-2.97-1.48-1.4-.52-2.4-.98-2.99-1.37-.59-.39-1.03-.83-1.32-1.33-.29-.49-.43-1.09-.43-1.77,0-1.23.5-2.2,1.5-2.91,1-.71,2.37-1.06,4.11-1.06,1.62,0,3.21.33,4.75.99l-.81,1.85c-1.51-.62-2.88-.93-4.11-.93-1.08,0-1.9.17-2.45.51-.55.34-.82.81-.82,1.4,0,.4.1.75.31,1.03.21.28.54.55,1,.81.46.26,1.34.63,2.64,1.11,1.78.65,2.99,1.31,3.62,1.96s.94,1.49.94,2.49Z"/>
      <path d="M705.34,58.62c0-.52.13-.9.38-1.15.26-.24.58-.36.96-.36s.68.12.95.37c.27.25.4.63.4,1.14s-.13.9-.4,1.15c-.26.25-.58.38-.95.38-.38,0-.71-.13-.96-.38-.26-.25-.38-.63-.38-1.15ZM707.82,77.75h-2.28v-15.06h2.28v15.06Z"/>
      <path d="M725.65,70.21c0,2.45-.62,4.37-1.85,5.75-1.24,1.38-2.95,2.07-5.12,2.07-1.35,0-2.54-.32-3.59-.95s-1.85-1.54-2.42-2.72c-.57-1.18-.85-2.56-.85-4.15,0-2.45.61-4.37,1.84-5.74,1.23-1.37,2.93-2.05,5.11-2.05s3.78.7,5.02,2.1,1.86,3.3,1.86,5.69ZM714.18,70.21c0,1.92.38,3.39,1.15,4.4.77,1.01,1.9,1.51,3.39,1.51s2.63-.5,3.4-1.5c.77-1,1.16-2.47,1.16-4.4s-.39-3.37-1.16-4.36c-.77-.99-1.92-1.49-3.43-1.49s-2.62.49-3.38,1.47c-.76.98-1.14,2.44-1.14,4.38Z"/>
      <path d="M739.95,77.75v-9.74c0-1.23-.28-2.14-.84-2.75-.56-.6-1.43-.91-2.62-.91-1.57,0-2.73.43-3.46,1.28s-1.1,2.26-1.1,4.22v7.9h-2.28v-15.06h1.86l.37,2.06h.11c.47-.74,1.12-1.32,1.96-1.72.84-.41,1.78-.61,2.82-.61,1.81,0,3.18.44,4.09,1.31.92.87,1.37,2.27,1.37,4.2v9.82h-2.28Z"/>
    </g>
    <g>
      <path d="M69.32,368.79v2.34h-9.45v10.58h9.45v2.34h-20.08v-2.34h8.54v-10.58h-8.54v-2.34h20.08Z"/>
      <path d="M50.18,363.82c-.52,0-.9-.13-1.15-.38-.24-.26-.36-.58-.36-.96s.12-.68.37-.95c.25-.27.63-.4,1.14-.4s.9.13,1.15.4c.25.26.38.58.38.95,0,.38-.13.71-.38.96-.25.26-.63.38-1.15.38ZM69.32,361.35v2.28h-15.06v-2.28h15.06Z"/>
      <path d="M54.26,344.19h1.44l.33,2.79c.32-.26.74-.49,1.26-.69.52-.2,1.1-.3,1.75-.3,1.47,0,2.65.5,3.53,1.51s1.32,2.39,1.32,4.15c0,.45-.04.87-.11,1.26.51.97,1.16,1.46,1.94,1.46.41,0,.72-.17.91-.51.2-.34.3-.92.3-1.75v-2.67c0-1.63.34-2.88,1.03-3.76.69-.87,1.68-1.31,2.99-1.31,1.67,0,2.94.67,3.81,2.01.87,1.34,1.31,3.29,1.31,5.85,0,1.97-.37,3.49-1.1,4.55-.73,1.07-1.77,1.6-3.1,1.6-.92,0-1.71-.29-2.38-.88-.67-.59-1.12-1.41-1.36-2.47-.17.38-.44.71-.81.97-.37.26-.79.39-1.28.39-.55,0-1.03-.15-1.44-.44s-.81-.76-1.2-1.39c-.32.78-.87,1.41-1.63,1.9s-1.65.74-2.64.74c-1.65,0-2.92-.49-3.81-1.48-.89-.99-1.34-2.39-1.34-4.2,0-.79.09-1.5.27-2.13v-5.21ZM59.08,354.96c1.05,0,1.85-.3,2.39-.89.54-.6.81-1.42.81-2.49,0-2.22-1.08-3.34-3.24-3.34s-3.39,1.13-3.39,3.38c0,1.07.29,1.9.87,2.47s1.43.87,2.57.87ZM71.85,356.19c.81,0,1.43-.34,1.85-1.03.42-.69.63-1.67.63-2.95,0-1.91-.29-3.33-.86-4.25-.57-.92-1.35-1.38-2.33-1.38-.82,0-1.38.25-1.7.76-.32.5-.47,1.45-.47,2.84v2.73c0,1.04.25,1.84.74,2.42s1.2.86,2.13.86Z"/>
      <path d="M69.32,330.79h-9.74c-1.23,0-2.14.28-2.75.84-.6.56-.91,1.43-.91,2.62,0,1.58.43,2.74,1.29,3.47.86.73,2.27,1.09,4.23,1.09h7.87v2.28h-21.38v-2.28h6.47c.78,0,1.42.04,1.94.11v-.14c-.72-.45-1.29-1.09-1.71-1.92-.42-.83-.63-1.77-.63-2.84,0-1.84.44-3.22,1.31-4.14.87-.92,2.26-1.38,4.17-1.38h9.82v2.28Z"/>
      <path d="M69.32,303.55l-6.39,2.5v8.05l6.39,2.47v2.36l-20.17-7.94v-1.96l20.17-7.9v2.42ZM60.83,306.78l-6.22,2.33c-.79.3-1.75.61-2.9.93.88.2,1.85.49,2.9.87l6.22,2.36v-6.5Z"/>
      <path d="M69.59,292.7c0,2.18-.67,3.87-2.01,5.06-1.34,1.2-3.24,1.79-5.69,1.79s-4.46-.61-5.84-1.82c-1.37-1.21-2.06-2.94-2.06-5.19,0-.72.08-1.45.23-2.17.16-.72.34-1.29.55-1.7l1.94.7c-.2.5-.37,1.05-.5,1.65-.13.6-.2,1.12-.2,1.58,0,3.06,1.95,4.59,5.85,4.59,1.85,0,3.27-.37,4.26-1.12s1.48-1.85,1.48-3.32c0-1.26-.27-2.54-.81-3.86h2.02c.52,1.01.78,2.28.78,3.81Z"/>
      <path d="M69.59,279.31c0,2.18-.67,3.87-2.01,5.06-1.34,1.2-3.24,1.79-5.69,1.79s-4.46-.61-5.84-1.82c-1.37-1.21-2.06-2.94-2.06-5.19,0-.72.08-1.45.23-2.17.16-.72.34-1.29.55-1.7l1.94.7c-.2.5-.37,1.05-.5,1.65-.13.6-.2,1.12-.2,1.58,0,3.06,1.95,4.59,5.85,4.59,1.85,0,3.27-.37,4.26-1.12s1.48-1.85,1.48-3.32c0-1.26-.27-2.54-.81-3.86h2.02c.52,1.01.78,2.28.78,3.81Z"/>
      <path d="M54.26,269.79h9.77c1.23,0,2.14-.28,2.75-.84.6-.56.91-1.43.91-2.62,0-1.57-.43-2.73-1.29-3.46-.86-.73-2.27-1.09-4.22-1.09h-7.91v-2.28h15.06v1.88l-2.02.33v.12c.74.47,1.31,1.12,1.7,1.94.39.83.59,1.77.59,2.84,0,1.83-.43,3.2-1.31,4.11-.87.91-2.26,1.37-4.18,1.37h-9.85v-2.31Z"/>
      <path d="M53.99,247.79c0-.67.05-1.27.16-1.8l2.12.32c-.14.62-.21,1.17-.21,1.65,0,1.22.49,2.26,1.48,3.13.99.86,2.22,1.3,3.7,1.3h8.08v2.28h-15.06v-1.88l2.79-.26v-.11c-.98-.56-1.74-1.23-2.27-2.02-.53-.79-.8-1.65-.8-2.6Z"/>
      <path d="M69.32,233.92l-2.14.45v.11c.94.75,1.58,1.5,1.92,2.25.33.75.5,1.68.5,2.8,0,1.49-.38,2.66-1.15,3.51s-1.86,1.27-3.28,1.27c-3.04,0-4.63-2.43-4.78-7.29l-.08-2.56h-.93c-1.18,0-2.05.25-2.62.76-.56.51-.84,1.32-.84,2.44,0,1.26.38,2.67,1.15,4.26l-1.74.7c-.4-.74-.72-1.56-.95-2.44-.23-.88-.34-1.77-.34-2.66,0-1.79.4-3.13,1.2-3.99.8-.87,2.07-1.3,3.83-1.3h10.28v1.69ZM67.71,239.07c0-1.42-.39-2.53-1.17-3.34-.78-.81-1.87-1.22-3.27-1.22h-1.36l.1,2.28c.06,1.81.35,3.12.85,3.92.5.8,1.28,1.2,2.33,1.2.82,0,1.45-.25,1.88-.75.43-.5.65-1.2.65-2.1Z"/>
      <path d="M69.59,221.51c0,2.18-.67,3.87-2.01,5.06-1.34,1.2-3.24,1.79-5.69,1.79s-4.46-.61-5.84-1.82c-1.37-1.21-2.06-2.94-2.06-5.19,0-.72.08-1.45.23-2.17.16-.72.34-1.29.55-1.7l1.94.7c-.2.5-.37,1.05-.5,1.65-.13.6-.2,1.12-.2,1.58,0,3.06,1.95,4.59,5.85,4.59,1.85,0,3.27-.37,4.26-1.12s1.48-1.85,1.48-3.32c0-1.26-.27-2.54-.81-3.86h2.02c.52,1.01.78,2.28.78,3.81Z"/>
      <path d="M54.26,216.52v-2.45l8.59-3.3c1.96-.72,3.38-1.17,4.24-1.35v-.11c-.47-.12-1.27-.37-2.4-.75-1.13-.38-4.61-1.62-10.43-3.73v-2.45l17.14,6.47c1.69.64,2.9,1.39,3.61,2.25.71.86,1.06,1.91,1.06,3.15,0,.7-.08,1.38-.23,2.06h-1.83c.11-.5.16-1.07.16-1.69,0-1.56-.88-2.68-2.64-3.35l-2.14-.84-15.14,6.07Z"/>
    </g>
    <g>
      <path d="M69.4,757.4h-20.08v-2.34h17.97v-8.86h2.12v11.2Z"/>
      <path d="M61.86,730.15c2.45,0,4.37.62,5.75,1.85,1.38,1.24,2.07,2.95,2.07,5.12,0,1.35-.32,2.54-.95,3.59s-1.54,1.85-2.72,2.42c-1.18.57-2.56.85-4.15.85-2.45,0-4.37-.61-5.74-1.84-1.37-1.23-2.05-2.93-2.05-5.11s.7-3.78,2.1-5.02,3.3-1.86,5.69-1.86ZM61.86,741.62c1.92,0,3.39-.38,4.4-1.15,1.01-.77,1.51-1.9,1.51-3.39s-.5-2.63-1.5-3.4c-1-.77-2.47-1.16-4.4-1.16s-3.37.39-4.36,1.16c-.99.77-1.49,1.92-1.49,3.43s.49,2.62,1.47,3.38c.98.76,2.44,1.14,4.38,1.14Z"/>
      <path d="M69.4,713.85l-8.83,2.76c-.54.17-1.77.5-3.68.97v.11c1.6.37,2.84.69,3.71.96l8.81,2.84v2.64l-15.06,4.11v-2.39c3.78-.97,6.66-1.71,8.64-2.22,1.98-.51,3.31-.8,4-.87v-.11c-.52-.1-1.2-.26-2.03-.49-.83-.22-1.49-.42-1.97-.58l-8.64-2.76v-2.47l8.64-2.69c1.58-.51,2.9-.86,3.97-1.04v-.11c-.33-.04-.84-.14-1.52-.3s-4.38-1.12-11.09-2.87v-2.36l15.06,4.16v2.71Z"/>
      <path d="M69.4,683.99l-6.39,2.5v8.05l6.39,2.47v2.36l-20.17-7.94v-1.96l20.17-7.9v2.42ZM60.91,687.22l-6.22,2.33c-.79.3-1.75.61-2.9.93.88.2,1.85.49,2.9.87l6.22,2.36v-6.5Z"/>
      <path d="M69.68,673.14c0,2.18-.67,3.87-2.01,5.06-1.34,1.2-3.24,1.79-5.69,1.79s-4.46-.61-5.84-1.82c-1.37-1.21-2.06-2.94-2.06-5.19,0-.72.08-1.45.23-2.17.16-.72.34-1.29.55-1.7l1.94.7c-.2.5-.37,1.05-.5,1.65-.13.6-.2,1.12-.2,1.58,0,3.06,1.95,4.59,5.85,4.59,1.85,0,3.27-.37,4.26-1.12s1.48-1.85,1.48-3.32c0-1.26-.27-2.54-.81-3.86h2.02c.52,1.01.78,2.28.78,3.81Z"/>
      <path d="M69.68,659.74c0,2.18-.67,3.87-2.01,5.06-1.34,1.2-3.24,1.79-5.69,1.79s-4.46-.61-5.84-1.82c-1.37-1.21-2.06-2.94-2.06-5.19,0-.72.08-1.45.23-2.17.16-.72.34-1.29.55-1.7l1.94.7c-.2.5-.37,1.05-.5,1.65-.13.6-.2,1.12-.2,1.58,0,3.06,1.95,4.59,5.85,4.59,1.85,0,3.27-.37,4.26-1.12s1.48-1.85,1.48-3.32c0-1.26-.27-2.54-.81-3.86h2.02c.52,1.01.78,2.28.78,3.81Z"/>
      <path d="M54.35,650.22h9.77c1.23,0,2.14-.28,2.75-.84.6-.56.91-1.43.91-2.62,0-1.57-.43-2.73-1.29-3.46-.86-.73-2.27-1.09-4.22-1.09h-7.91v-2.28h15.06v1.88l-2.02.33v.12c.74.47,1.31,1.12,1.7,1.94.39.83.59,1.77.59,2.84,0,1.83-.43,3.2-1.31,4.11-.87.91-2.26,1.37-4.18,1.37h-9.85v-2.31Z"/>
      <path d="M54.07,628.23c0-.67.05-1.27.16-1.8l2.12.32c-.14.62-.21,1.17-.21,1.65,0,1.22.49,2.26,1.48,3.13.99.86,2.22,1.3,3.7,1.3h8.08v2.28h-15.06v-1.88l2.79-.26v-.11c-.98-.56-1.74-1.23-2.27-2.02-.53-.79-.8-1.65-.8-2.6Z"/>
      <path d="M69.4,614.35l-2.14.45v.11c.94.75,1.58,1.5,1.92,2.25.33.75.5,1.68.5,2.8,0,1.49-.38,2.66-1.15,3.51s-1.86,1.27-3.28,1.27c-3.04,0-4.63-2.43-4.78-7.29l-.08-2.56h-.93c-1.18,0-2.05.25-2.62.76-.56.51-.84,1.32-.84,2.44,0,1.26.38,2.67,1.15,4.26l-1.74.7c-.4-.74-.72-1.56-.95-2.44-.23-.88-.34-1.77-.34-2.66,0-1.79.4-3.13,1.2-3.99.8-.87,2.07-1.3,3.83-1.3h10.28v1.69ZM67.79,619.5c0-1.42-.39-2.53-1.17-3.34-.78-.81-1.87-1.22-3.27-1.22h-1.36l.1,2.28c.06,1.81.35,3.12.85,3.92.5.8,1.28,1.2,2.33,1.2.82,0,1.45-.25,1.88-.75.43-.5.65-1.2.65-2.1Z"/>
      <path d="M69.68,601.95c0,2.18-.67,3.87-2.01,5.06-1.34,1.2-3.24,1.79-5.69,1.79s-4.46-.61-5.84-1.82c-1.37-1.21-2.06-2.94-2.06-5.19,0-.72.08-1.45.23-2.17.16-.72.34-1.29.55-1.7l1.94.7c-.2.5-.37,1.05-.5,1.65-.13.6-.2,1.12-.2,1.58,0,3.06,1.95,4.59,5.85,4.59,1.85,0,3.27-.37,4.26-1.12s1.48-1.85,1.48-3.32c0-1.26-.27-2.54-.81-3.86h2.02c.52,1.01.78,2.28.78,3.81Z"/>
      <path d="M54.35,596.96v-2.45l8.59-3.3c1.96-.72,3.38-1.17,4.24-1.35v-.11c-.47-.12-1.27-.37-2.4-.75-1.13-.38-4.61-1.62-10.43-3.73v-2.45l17.14,6.47c1.69.64,2.9,1.39,3.61,2.25.71.86,1.06,1.91,1.06,3.15,0,.7-.08,1.38-.23,2.06h-1.83c.11-.5.16-1.07.16-1.69,0-1.56-.88-2.68-2.64-3.35l-2.14-.84-15.14,6.07Z"/>
    </g>
  </g>
  <g id="Layer_6" data-name="Layer 6">
    <g>
      <path class="cls-3" d="M280.67,821c-22.34,0-44.01-4.38-64.42-13.01-19.71-8.34-37.41-20.27-52.6-35.46-15.2-15.2-27.13-32.89-35.46-52.6-8.63-20.41-13.01-42.08-13.01-64.42s4.38-44.01,13.01-64.42c8.34-19.71,20.27-37.41,35.46-52.6,15.2-15.2,32.89-27.13,52.6-35.46,20.41-8.63,42.08-13.01,64.42-13.01s44.01,4.38,64.42,13.01c19.71,8.34,37.41,20.27,52.6,35.46,15.2,15.2,27.13,32.89,35.46,52.6,8.63,20.41,13.01,42.08,13.01,64.42s-4.38,44.01-13.01,64.42c-8.34,19.71-20.27,37.41-35.46,52.6-15.2,15.2-32.89,27.13-52.6,35.46-20.41,8.63-42.08,13.01-64.42,13.01ZM280.67,506.8c-81.99,0-148.7,66.71-148.7,148.7s66.71,148.7,148.7,148.7,148.7-66.71,148.7-148.7-66.71-148.7-148.7-148.7Z"/>
      <path class="cls-3" d="M280.67,786.04c-17.62,0-34.72-3.45-50.82-10.26-15.55-6.58-29.51-15.99-41.49-27.97-11.99-11.99-21.4-25.95-27.97-41.49-6.81-16.1-10.26-33.2-10.26-50.82s3.45-34.72,10.26-50.82c6.58-15.55,15.99-29.51,27.97-41.49,11.99-11.99,25.95-21.4,41.49-27.97,16.1-6.81,33.2-10.26,50.82-10.26s34.72,3.45,50.82,10.26c15.55,6.58,29.51,15.99,41.49,27.97,11.99,11.99,21.4,25.95,27.97,41.49,6.81,16.1,10.26,33.2,10.26,50.82s-3.45,34.72-10.26,50.82c-6.58,15.55-15.99,29.51-27.97,41.49-11.99,11.99-25.95,21.4-41.49,27.97-16.1,6.81-33.2,10.26-50.82,10.26ZM280.67,541.76c-62.72,0-113.74,51.02-113.74,113.74s51.02,113.74,113.74,113.74,113.74-51.02,113.74-113.74-51.02-113.74-113.74-113.74Z"/>
      <path class="cls-3" d="M280.67,750.13c-25.28,0-49.04-9.84-66.92-27.72-17.87-17.87-27.72-41.64-27.72-66.92s9.84-49.04,27.72-66.92c17.87-17.87,41.64-27.72,66.92-27.72s49.04,9.84,66.92,27.72c17.87,17.87,27.72,41.64,27.72,66.92s-9.84,49.04-27.72,66.92c-17.87,17.87-41.64,27.72-66.92,27.72ZM280.67,577.67c-42.92,0-77.83,34.92-77.83,77.83s34.92,77.83,77.83,77.83,77.83-34.92,77.83-77.83-34.92-77.83-77.83-77.83Z"/>
      <path class="cls-3" d="M280.67,715.8c-33.25,0-60.3-27.05-60.3-60.3s27.05-60.3,60.3-60.3,60.3,27.05,60.3,60.3-27.05,60.3-60.3,60.3ZM280.67,612c-23.99,0-43.5,19.51-43.5,43.5s19.51,43.5,43.5,43.5,43.5-19.51,43.5-43.5-19.51-43.5-43.5-43.5Z"/>
    </g>
    <path class="cls-3" d="M280.67,683.63c-15.51,0-28.13-12.62-28.13-28.13s12.62-28.13,28.13-28.13,28.13,12.62,28.13,28.13-12.62,28.13-28.13,28.13ZM280.67,644.17c-6.25,0-11.33,5.08-11.33,11.33s5.08,11.33,11.33,11.33,11.33-5.08,11.33-11.33-5.08-11.33-11.33-11.33Z"/>
    <g>
      <path class="cls-3" d="M650,821c-22.34,0-44.01-4.38-64.42-13.01-19.71-8.34-37.41-20.27-52.6-35.46-15.2-15.2-27.13-32.89-35.46-52.6-8.63-20.41-13.01-42.08-13.01-64.42s4.38-44.01,13.01-64.42c8.34-19.71,20.27-37.41,35.46-52.6,15.2-15.2,32.89-27.13,52.6-35.46,20.41-8.63,42.08-13.01,64.42-13.01s44.01,4.38,64.42,13.01c19.71,8.34,37.41,20.27,52.6,35.46,15.2,15.2,27.13,32.89,35.46,52.6,8.63,20.41,13.01,42.08,13.01,64.42s-4.38,44.01-13.01,64.42c-8.34,19.71-20.27,37.41-35.46,52.6-15.2,15.2-32.89,27.13-52.6,35.46-20.41,8.63-42.08,13.01-64.42,13.01ZM650,506.8c-81.99,0-148.7,66.71-148.7,148.7s66.71,148.7,148.7,148.7,148.7-66.71,148.7-148.7-66.71-148.7-148.7-148.7Z"/>
      <path class="cls-3" d="M650,786.04c-17.62,0-34.72-3.45-50.82-10.26-15.55-6.58-29.51-15.99-41.49-27.97-11.99-11.99-21.4-25.95-27.97-41.49-6.81-16.1-10.26-33.2-10.26-50.82s3.45-34.72,10.26-50.82c6.58-15.55,15.99-29.51,27.97-41.49,11.99-11.99,25.95-21.4,41.49-27.97,16.1-6.81,33.2-10.26,50.82-10.26s34.72,3.45,50.82,10.26c15.55,6.58,29.51,15.99,41.49,27.97,11.99,11.99,21.4,25.95,27.97,41.49,6.81,16.1,10.26,33.2,10.26,50.82s-3.45,34.72-10.26,50.82c-6.58,15.55-15.99,29.51-27.97,41.49-11.99,11.99-25.95,21.4-41.49,27.97-16.1,6.81-33.2,10.26-50.82,10.26ZM650,541.76c-62.72,0-113.74,51.02-113.74,113.74s51.02,113.74,113.74,113.74,113.74-51.02,113.74-113.74-51.02-113.74-113.74-113.74Z"/>
      <path class="cls-3" d="M650,750.13c-25.28,0-49.04-9.84-66.92-27.72-17.87-17.87-27.72-41.64-27.72-66.92s9.84-49.04,27.72-66.92c17.87-17.87,41.64-27.72,66.92-27.72s49.04,9.84,66.92,27.72c17.87,17.87,27.72,41.64,27.72,66.92s-9.84,49.04-27.72,66.92c-17.87,17.87-41.64,27.72-66.92,27.72ZM650,577.67c-42.92,0-77.83,34.92-77.83,77.83s34.92,77.83,77.83,77.83,77.83-34.92,77.83-77.83-34.92-77.83-77.83-77.83Z"/>
      <path class="cls-3" d="M650,715.8c-33.25,0-60.3-27.05-60.3-60.3s27.05-60.3,60.3-60.3,60.3,27.05,60.3,60.3-27.05,60.3-60.3,60.3ZM650,612c-23.99,0-43.5,19.51-43.5,43.5s19.51,43.5,43.5,43.5,43.5-19.51,43.5-43.5-19.51-43.5-43.5-43.5Z"/>
      <path class="cls-3" d="M650,683.63c-15.51,0-28.13-12.62-28.13-28.13s12.62-28.13,28.13-28.13,28.13,12.62,28.13,28.13-12.62,28.13-28.13,28.13ZM650,644.17c-6.25,0-11.33,5.08-11.33,11.33s5.08,11.33,11.33,11.33,11.33-5.08,11.33-11.33-5.08-11.33-11.33-11.33Z"/>
    </g>
    <g>
      <path class="cls-3" d="M650,458.5c-22.34,0-44.01-4.38-64.42-13.01-19.71-8.34-37.41-20.27-52.6-35.46-15.2-15.2-27.13-32.89-35.46-52.6-8.63-20.41-13.01-42.08-13.01-64.42s4.38-44.01,13.01-64.42c8.34-19.71,20.27-37.41,35.46-52.6,15.2-15.2,32.89-27.13,52.6-35.46,20.41-8.63,42.08-13.01,64.42-13.01s44.01,4.38,64.42,13.01c19.71,8.34,37.41,20.27,52.6,35.46,15.2,15.2,27.13,32.89,35.46,52.6,8.63,20.41,13.01,42.08,13.01,64.42s-4.38,44.01-13.01,64.42c-8.34,19.71-20.27,37.41-35.46,52.6-15.2,15.2-32.89,27.13-52.6,35.46-20.41,8.63-42.08,13.01-64.42,13.01ZM650,144.3c-81.99,0-148.7,66.71-148.7,148.7s66.71,148.7,148.7,148.7,148.7-66.71,148.7-148.7-66.71-148.7-148.7-148.7Z"/>
      <path class="cls-3" d="M650,423.54c-17.62,0-34.72-3.45-50.82-10.26-15.55-6.58-29.51-15.99-41.49-27.97-11.99-11.99-21.4-25.95-27.97-41.49-6.81-16.1-10.26-33.2-10.26-50.82s3.45-34.72,10.26-50.82c6.58-15.55,15.99-29.51,27.97-41.49,11.99-11.99,25.95-21.4,41.49-27.97,16.1-6.81,33.2-10.26,50.82-10.26s34.72,3.45,50.82,10.26c15.55,6.58,29.51,15.99,41.49,27.97,11.99,11.99,21.4,25.95,27.97,41.49,6.81,16.1,10.26,33.2,10.26,50.82s-3.45,34.72-10.26,50.82c-6.58,15.55-15.99,29.51-27.97,41.49-11.99,11.99-25.95,21.4-41.49,27.97-16.1,6.81-33.2,10.26-50.82,10.26ZM650,179.26c-62.72,0-113.74,51.02-113.74,113.74s51.02,113.74,113.74,113.74,113.74-51.02,113.74-113.74-51.02-113.74-113.74-113.74Z"/>
      <path class="cls-3" d="M650,387.63c-25.28,0-49.04-9.84-66.92-27.72-17.87-17.87-27.72-41.64-27.72-66.92s9.84-49.04,27.72-66.92c17.87-17.87,41.64-27.72,66.92-27.72s49.04,9.84,66.92,27.72c17.87,17.87,27.72,41.64,27.72,66.92s-9.84,49.04-27.72,66.92c-17.87,17.87-41.64,27.72-66.92,27.72ZM650,215.17c-42.92,0-77.83,34.92-77.83,77.83s34.92,77.83,77.83,77.83,77.83-34.92,77.83-77.83-34.92-77.83-77.83-77.83Z"/>
      <path class="cls-3" d="M650,353.3c-33.25,0-60.3-27.05-60.3-60.3s27.05-60.3,60.3-60.3,60.3,27.05,60.3,60.3-27.05,60.3-60.3,60.3ZM650,249.5c-23.99,0-43.5,19.51-43.5,43.5s19.51,43.5,43.5,43.5,43.5-19.51,43.5-43.5-19.51-43.5-43.5-43.5Z"/>
      <path class="cls-3" d="M650,321.13c-15.51,0-28.13-12.62-28.13-28.13s12.62-28.13,28.13-28.13,28.13,12.62,28.13,28.13-12.62,28.13-28.13,28.13ZM650,281.67c-6.25,0-11.33,5.08-11.33,11.33s5.08,11.33,11.33,11.33,11.33-5.08,11.33-11.33-5.08-11.33-11.33-11.33Z"/>
    </g>
    <g>
      <path class="cls-3" d="M280.67,458.5c-22.34,0-44.01-4.38-64.42-13.01-19.71-8.34-37.41-20.27-52.6-35.46-15.2-15.2-27.13-32.89-35.46-52.6-8.63-20.41-13.01-42.08-13.01-64.42s4.38-44.01,13.01-64.42c8.34-19.71,20.27-37.41,35.46-52.6,15.2-15.2,32.89-27.13,52.6-35.46,20.41-8.63,42.08-13.01,64.42-13.01s44.01,4.38,64.42,13.01c19.71,8.34,37.41,20.27,52.6,35.46,15.2,15.2,27.13,32.89,35.46,52.6,8.63,20.41,13.01,42.08,13.01,64.42s-4.38,44.01-13.01,64.42c-8.34,19.71-20.27,37.41-35.46,52.6-15.2,15.2-32.89,27.13-52.6,35.46-20.41,8.63-42.08,13.01-64.42,13.01ZM280.67,144.3c-81.99,0-148.7,66.71-148.7,148.7s66.71,148.7,148.7,148.7,148.7-66.71,148.7-148.7-66.71-148.7-148.7-148.7Z"/>
      <path class="cls-3" d="M280.67,423.54c-17.62,0-34.72-3.45-50.82-10.26-15.55-6.58-29.51-15.99-41.49-27.97-11.99-11.99-21.4-25.95-27.97-41.49-6.81-16.1-10.26-33.2-10.26-50.82s3.45-34.72,10.26-50.82c6.58-15.55,15.99-29.51,27.97-41.49,11.99-11.99,25.95-21.4,41.49-27.97,16.1-6.81,33.2-10.26,50.82-10.26s34.72,3.45,50.82,10.26c15.55,6.58,29.51,15.99,41.49,27.97,11.99,11.99,21.4,25.95,27.97,41.49,6.81,16.1,10.26,33.2,10.26,50.82s-3.45,34.72-10.26,50.82c-6.58,15.55-15.99,29.51-27.97,41.49-11.99,11.99-25.95,21.4-41.49,27.97-16.1,6.81-33.2,10.26-50.82,10.26ZM280.67,179.26c-62.72,0-113.74,51.02-113.74,113.74s51.02,113.74,113.74,113.74,113.74-51.02,113.74-113.74-51.02-113.74-113.74-113.74Z"/>
      <path class="cls-3" d="M280.67,387.63c-25.28,0-49.04-9.84-66.92-27.72-17.87-17.87-27.72-41.64-27.72-66.92s9.84-49.04,27.72-66.92c17.87-17.87,41.64-27.72,66.92-27.72s49.04,9.84,66.92,27.72c17.87,17.87,27.72,41.64,27.72,66.92s-9.84,49.04-27.72,66.92c-17.87,17.87-41.64,27.72-66.92,27.72ZM280.67,215.17c-42.92,0-77.83,34.92-77.83,77.83s34.92,77.83,77.83,77.83,77.83-34.92,77.83-77.83-34.92-77.83-77.83-77.83Z"/>
      <path class="cls-3" d="M280.67,353.3c-33.25,0-60.3-27.05-60.3-60.3s27.05-60.3,60.3-60.3,60.3,27.05,60.3,60.3-27.05,60.3-60.3,60.3ZM280.67,249.5c-23.99,0-43.5,19.51-43.5,43.5s19.51,43.5,43.5,43.5,43.5-19.51,43.5-43.5-19.51-43.5-43.5-43.5Z"/>
      <path class="cls-3" d="M280.67,321.13c-15.51,0-28.13-12.62-28.13-28.13s12.62-28.13,28.13-28.13,28.13,12.62,28.13,28.13-12.62,28.13-28.13,28.13ZM280.67,281.67c-6.25,0-11.33,5.08-11.33,11.33s5.08,11.33,11.33,11.33,11.33-5.08,11.33-11.33-5.08-11.33-11.33-11.33Z"/>
    </g>
  </g>
  <g id="Layer_4" data-name="Layer 4">
    <circle class="cls-4" cx="710.58" cy="327.76" r="5.35"/>
    <circle class="cls-4" cx="617.85" cy="334.89" r="5.35"/>
    <circle class="cls-4" cx="686.25" cy="290.76" r="5.35"/>
    <circle class="cls-4" cx="649.61" cy="293.13" r="5.35"/>
    <circle class="cls-4" cx="623.1" cy="268.25" r="5.35"/>
    <circle class="cls-4" cx="649.61" cy="223.98" r="5.35"/>
    <circle class="cls-4" cx="578.71" cy="217.36" r="5.35"/>
    <circle class="cls-4" cx="285.41" cy="295.51" r="5.35"/>
    <circle class="cls-4" cx="275.78" cy="295.51" r="5.35"/>
    <circle class="cls-4" cx="280.66" cy="288.25" r="5.35"/>
    <circle class="cls-4" cx="300.47" cy="297.64" r="5.35"/>
    <circle class="cls-4" cx="296.1" cy="281.68" r="5.35"/>
    <circle class="cls-4" cx="280.97" cy="273.09" r="5.35"/>
    <circle class="cls-4" cx="261.44" cy="297.64" r="5.35"/>
    <circle class="cls-4" cx="272.69" cy="310.44" r="5.35"/>
    <circle class="cls-4" cx="289.2" cy="310.44" r="5.35"/>
    <circle class="cls-4" cx="264.69" cy="280.68" r="5.35"/>
    <circle class="cls-4" cx="594.82" cy="548.2" r="5.35"/>
    <circle class="cls-4" cx="661.27" cy="515.2" r="5.35"/>
    <circle class="cls-4" cx="618.62" cy="614.38" r="5.35"/>
    <circle class="cls-4" cx="566.73" cy="590.6" r="5.35"/>
    <circle class="cls-4" cx="619.63" cy="501.7" r="5.35"/>
    <circle class="cls-4" cx="532.97" cy="551.22" r="5.35"/>
    <circle class="cls-4" cx="159.39" cy="672.76" r="5.35"/>
    <circle class="cls-4" cx="159.48" cy="657.1" r="5.35"/>
    <circle class="cls-4" cx="159.3" cy="641.15" r="5.35"/>
    <circle class="cls-4" cx="175.7" cy="665.6" r="5.35"/>
    <circle class="cls-4" cx="175.7" cy="647.59" r="5.35"/>
    <circle class="cls-4" cx="177.96" cy="631.84" r="5.35"/>
    <circle class="cls-4" cx="195.44" cy="641.3" r="5.35"/>
    <circle class="cls-4" cx="195.44" cy="672.81" r="5.35"/>
    <circle class="cls-4" cx="179.06" cy="682.94" r="5.35"/>
    <circle class="cls-4" cx="195.44" cy="657.05" r="5.35"/>
    <circle class="cls-4" cx="535.99" cy="611.08" r="5.35"/>
    <circle class="cls-4" cx="637.02" cy="553.43" r="5.35"/>
    <circle class="cls-4" cx="683.17" cy="575.82" r="5.35"/>
    <circle class="cls-4" cx="569.76" cy="622.96" r="5.35"/>
    <circle class="cls-4" cx="593.09" cy="357.95" r="5.35"/>
    <circle class="cls-4" cx="684.87" cy="332.44" r="5.35"/>
    <g id="blue_watermark" data-name="blue watermark">
      <g class="cls-9">
        <g class="cls-5">
          <path class="cls-6" d="M834.51,825.9c0,.5-.15,1.7-1.07,2.44-.92.74-1.95.92-2.95.79-1-.13-1.52-1.02-1.49-1.82.03-.8.38-1.49,1.6-1.83,1.22-.33,2.63-.5,3.91-1.1v1.52ZM834.88,816.88c-2.99-.68-5.4-.29-6.6.32-1.2.61-2.45,1.73-2.57,3.5h3.83s.43-1.03,2.06-1.06c1.63-.03,2.64.35,2.82,1.08.17.73-.44,1.29-1.44,1.54-1,.25-2.6.42-3.71.65-1.12.23-3.13,1.07-3.63,2.42-.49,1.35-.51,3.18.04,4.43.55,1.25,2.39,2.54,4.83,2.47,2.44-.07,4.4-.23,5.83-1.54,1.44-1.31,1.89-2.67,1.89-4.08s.01-5.7.01-6.18-.38-2.87-3.37-3.55"/>
          <path class="cls-6" d="M775.37,805.77l39.19,7.81v.45l-37.54-6.46,3.27,3.6,34.27,3.38v.44c-10.98-.76-21.86-1.49-32.84-2.25l2.51,2.76c10.14,0,20.19,0,30.33,0v.38h4.03v-1.34c0-1.04-.83-1.89-1.85-1.89h-2.18v.42l-43.34-11.88,4.15,4.59Z"/>
        </g>
        <g class="cls-8">
          <rect class="cls-6" x="771.22" y="801.18" width="47.38" height="14.7"/>
        </g>
        <g class="cls-7">
          <path class="cls-6" d="M822.08,812.71h-2.18v19.53h4.03v-17.68c0-1.02-.83-1.85-1.85-1.85"/>
          <path class="cls-6" d="M816.74,817.13h-2.13v15.11h3.95v-13.29c0-1-.82-1.81-1.81-1.81"/>
          <path class="cls-6" d="M810.82,823.96c-1.36-.83-3.05-1.09-5.05-1.58s-2.48-1.01-2.49-1.49c0-.48.28-.97.85-1.12.57-.15,1.49-.26,2.45-.04.96.22,1.46,1.15,1.69,1.38.24.23.66.41.95.41h2.76c-.1-1.64-.61-2.85-1.8-3.72-1.19-.87-2.65-1.36-5.64-1.19-2.99.17-4.59,1.71-5.09,3.47-.51,1.76.03,3.55,1.44,4.47,1.41.92,3.74,1.38,5.17,1.68,1.42.31,2.53.75,2.45,1.7-.07.95-1.68,1.44-3.58,1.2-1.91-.24-2.1-2.2-2.1-2.2h-3.85c-.13,2.51,1.07,3.88,2.63,4.6,1.55.73,4.21.99,7.02.36,2.82-.62,3.89-2.63,3.9-4.4.02-1.77-.35-2.71-1.71-3.54"/>
          <path class="cls-6" d="M795.96,823.96c-1.36-.83-3.05-1.09-5.05-1.58s-2.48-1.01-2.49-1.49c0-.48.28-.97.85-1.12.57-.15,1.49-.26,2.45-.04.96.22,1.46,1.15,1.69,1.38.24.23.66.41.95.41h2.76c-.1-1.64-.61-2.85-1.8-3.72-1.19-.87-2.65-1.36-5.64-1.19-2.99.17-4.59,1.71-5.09,3.47-.51,1.76.03,3.55,1.44,4.47,1.41.92,3.74,1.38,5.17,1.68,1.42.31,2.53.75,2.45,1.7-.07.95-1.68,1.44-3.58,1.2-1.91-.24-2.1-2.2-2.1-2.2h-3.85c-.13,2.51,1.07,3.88,2.63,4.6,1.55.73,4.21.99,7.02.36,2.82-.62,3.89-2.63,3.9-4.4.02-1.77-.35-2.71-1.71-3.54"/>
          <path class="cls-6" d="M772.92,828.76c-3.89,0-5.61-3.05-5.61-6.79s1.89-6.77,5.62-6.77,5.62,3.03,5.62,6.77-1.73,6.79-5.62,6.79M772.93,811.7c-6.42,0-9.68,4.59-9.68,10.26s2.96,10.28,9.66,10.28,9.69-4.62,9.69-10.28-3.26-10.26-9.68-10.26"/>
        </g>
      </g>
    </g>
  </g>
</svg>